<?xml version="1.0" encoding="UTF-8"?>
<svg viewBox="0 0 233.27167 245.06409" xmlns="http://www.w3.org/2000/svg" xmlns:xlink="http://www.w3.org/1999/xlink">
 <defs>
  <linearGradient id="b">
   <stop stop-color="#eeeeec" offset="0"/>
   <stop stop-color="#babdb6" offset="1"/>
  </linearGradient>
  <linearGradient id="c" x1="98.81" x2="202.63" y1="470.19" y2="584.48" gradientUnits="userSpaceOnUse">
   <stop stop-color="#888a85" offset="0"/>
   <stop stop-color="#888a85" stop-opacity="0" offset="1"/>
  </linearGradient>
  <linearGradient id="e" x1="353.33" x2="339.04" y1="523.55" y2="558.55" gradientUnits="userSpaceOnUse" xlink:href="#b" spreadMethod="reflect"/>
  <linearGradient id="d" x1="100.89" x2="86.601" y1="387.5" y2="422.5" gradientUnits="userSpaceOnUse" xlink:href="#b" spreadMethod="reflect"/>
  <radialGradient id="a" cx="105.7" cy="29.272" r="46.186" gradientUnits="userSpaceOnUse">
   <stop stop-color="#fff" offset="0"/>
   <stop stop-color="#fff" stop-opacity="0" offset="1"/>
  </radialGradient>
 </defs>
 <g transform="translate(-87.68 -78.538)">
  <path d="m208.53 92.802c0.28484 0.8952 0.57768 1.8063 0.86988 2.6531-0.48431 5.0183 0.87416 7.6416 3.8709 8.8291-5.4e-4 -0.58866 0.02206-1.1975 0.08699-1.8702-1.2194-3.534-2.1326-7.8993-4.8278-9.612zm27.575 3.61c0.17046 1.9057 0.1185 3.9122 0.13047 5.7411-2.4018 5.2943-0.55298 7.7049 3.1316 9.3946 0.17576-0.74284 0.46305-1.5389 0.86986-2.4356-0.03163-4.8343 0.35529-11.031-4.1319-12.7zm-53.758 2.2616c0.48901 3.0829 1.6899 4.6711 3.436 5.3497-1.0427-1.8027-2.1437-3.7616-3.436-5.3497zm79.855 8.6987c-0.27661 2.2962-1.1378 4.8224-1.6528 7.2199-4.1431 5.029-2.1608 7.9499 1.8267 10.786 0.28777-1.1389 0.95226-2.3964 2.1312-3.8274 1.1902-5.5409 4.1608-11.843-2.3052-14.179zm23.313 17.919c-0.31265 0.07098-0.63864 0.18053-0.95687 0.26096-0.8243 2.4977-2.5973 5.1235-3.7404 7.3939-5.9556 4.3453-3.7744 7.9515 0.30446 12.396 0.0176-1.7608 1.083-3.5295 3.697-5.4367 2.4175-4.8013 7.6871-11.187 0.69591-14.614zm-83.378 2.8271c-9.0104-0.1119-18.042 1.4218-26.488 4.6103-9.8356 5.5211-31.8 12.667-28.401 26.183 1.0038 1.9888 2.233 3.752 3.6535 5.3062-1.309-12.46 19.277-19.237 28.706-24.53 15.897-6.0015 33.898-6.1723 49.887-0.43493-0.04183-1.922-0.32944-3.8679-1.0004-5.8281-8.3543-3.4421-17.347-5.1943-26.357-5.3062zm-77.593 5.4367c0.62763 1.5238 1.3925 3.0103 2.2617 4.4363 0.2638-0.4065 0.51448-0.78725 0.78289-1.2178-1.1171-0.94286-2.1247-2.0357-3.0446-3.2185zm111.61 3.2185c-1.0646 0.35025-1.4427 3.1591-2.2182 4.0449-0.34962 0.61053-0.62476 1.1819-0.86987 1.6962 0.35684 1.6306 0.44763 3.2703 0.39144 4.8713 3.4125 0.23415 11.542-6.7049 4.6973-9.1336-0.87716-1.2615-1.5168-1.638-2.0007-1.4788zm11.83 8.4812c-1.3914 0.25257-2.6672 0.65208-3.8709 1.1308 3.6591 3.9673-9.0977 11.889-8.0029 5.6976-4.318 4.7362-7.2671 11.063-10.656 16.614-4.161 4.4121-4.1467 10.355-5.9152 15.658 0.07453-0.01565 0.14128-0.02825 0.21747-0.04349 1.0011 3.197 0.82833 5.165 0.13049 6.263 1.0593 5.693-0.38653 13.825 4.5234 16.484 0.12051 0.20064 0.26656 0.36983 0.39144 0.56542-0.74791-4.7391-0.09117-10.595-2.3052-13.744 2.9285-5.8509 2.1142-13.086 6.959-18.224 5.7848-9.4766 10.232-21.21 22.53-23.443 5.5381 4.5245 10.22 9.9208 14.048 15.875-4.3342-8.7409-10.419-16.6-18.05-22.834zm53.715 3.6099c-1.3258 2.5119-4.1222 4.8789-6.0456 7.0024-7.3968 2.7801-5.5438 7.3348-2.3922 13.222 0.40605-0.13701 0.8438-0.23516 1.2613-0.34794-0.12192-2.4314 1.1356-4.4293 5.0888-5.9151 3.6035-3.9784 10.415-8.7825 4.4799-13.874-0.7691-0.05644-1.5762-0.0913-2.3922-0.08698zm-196.94 1.8702c-0.05462 0.20468-0.12945 0.3856-0.17397 0.6089 1.812 3.478 4.5043 7.2076 7.7854 10.09 0.41772-1.07 0.79594-2.2144 1.1743-3.4795-3.3931-1.579-6.3754-4.2411-8.7858-7.2199zm36.056 9.5685-1.1743 1.6962-1.0873 1.7397c0.25241 3.728 2.7891 5.1316 5.1323 5.1322l1.0874-1.6092c0.65866 0.26304 1.2314 0.51934 1.7832 0.78289 2.0996-1.4723 1.9913-4.6538-5.7412-7.7418zm-1.1308 12.091c-1.9066 0.00226-3.8451 0.24734-5.8716 0.95685-9.1299 21.633-6.2746 47.434 6.3501 67.023-9.1725-18.486-10.435-40.905-2.3487-60.064 5.4042-1.8921 10.056-0.67565 15.571 0.43493 7.8558 5.4347 17.49 8.841 24.226 15.571 0.75065 1.6763 2.0918 2.8955 3.436 4.0014 1.2948-5.2839-5.308-6.3022-7.3939-10.96-6.3218-6.3161-15.186-9.731-22.747-14.614-1.8897 1.733-6.5407 1.6976-7.9594-2.1312-1.0853-0.14038-2.1792-0.21875-3.262-0.21748zm172.84 3.2185c-1.6367 2.6379-5.6547 4.448-8.4378 6.263-7.8582 0.80365-7.327 5.5744-5.7847 12.135 1.0143-0.07688 2.0558-0.07107 3.088 0 0.28673-2.8207 1.9888-4.6985 6.6546-5.1757 4.4976-2.9332 12.264-5.859 7.9159-12.309-1.0781-0.36895-2.2407-0.65086-3.436-0.91336zm-218.64 0.73939c-0.38621 0.8952-0.58749 2.0177-0.52192 3.3925 3.6348 2.9241 7.2809 6.1047 11.569 7.9593 0.36254-1.6036 0.48664-3.5376 0.56541-5.6106-4.4263-0.70267-8.1297-3.0593-11.613-5.7411zm122.52 4.0449c-1.415 1.4042-2.9702 2.6874-4.7408 3.7839 2.1544 1.2079 5.2006 0.79705 4.7408-3.7839zm-37.753 6.263c-0.10141 3.2151 4.4903 8.9175 6.8285 1.7832-0.00416-0.00144 0.00416-0.04206 0-0.04349-2.1522-0.74253-4.3425-1.4186-6.5676-1.5658l-0.26096-0.17398zm22.269 4.0449c-1.73 0.0401-3.4578 0.51421-4.9583 1.3918-6.6675 3.4943-5.8417 13.015-0.65241 16.962-0.59789-3.837 0.71664-7.9629 4.6104-10.003 3.001-1.7552 6.8868-1.8706 9.9601-0.13048 0.37063 0.17746 0.71611 0.35232 1.0438 0.56541-0.25738-3.0878-1.8135-5.9977-5.0018-7.5243-1.5366-0.87003-3.2718-1.3014-5.0018-1.2613zm115.3 13.309c-1.6507 3.1618-7.0232 3.9071-10.743 5.1322-7.8196-1.2274-8.5498 3.5723-8.6988 10.308 1.5667 0.24788 3.0689 0.69702 4.4799 1.3048 0.79036-3.5021 2.8216-5.4944 8.1768-4.6538 5.0979-1.679 13.344-2.4201 10.786-9.786-1.2123-0.82257-2.5719-1.6098-4.0014-2.3051zm-226.08 0.52192c-0.71245 1.2771-0.88684 2.9048-0.21747 5.0452 4.7389 2.1236 9.619 4.5722 14.831 4.9147 0.20786-1.9379-0.23854-4.317-0.86988-7.0024-4.8366 0.53068-9.3732-1.0494-13.744-2.9575zm129.57 4.4798c-11.058 9.7428 15.452 9.5274 0 0zm-32.185 6.9589c-0.27997 0.41682-0.51479 0.79947-0.73939 1.1743 0.39842 2.0088 0.61439 3.9714 0.34794 6.0456 3.4088-0.02422 9.2994-5.0595 0.39145-7.2199zm25.531 2.0877c-0.53045-0.01187-1.018 0.03763-1.4788 0.17397-4.6892 5.6096-14.469-1.1896-16.789 5.8281l-0.13047 0.08698c5.3675 3.2713-5.0878 8.6475-5.4802 4.4363-3.2074 3.3544-5.6324 7.384-7.8289 11.613-4.0264 6.1033-8.152 12.952-8.6553 20.137l0.39145-0.0435c1.0958 2.9036 0.95728 5.0828 0.26096 6.611 0.1039 0.37688 0.21855 0.75273 0.34795 1.1308 0.97095 0.40768 1.927 0.81387 2.9141 1.1743-0.18667-7.8867 4.3592-15.407 8.7422-22.051 3.314-6.3802 7.0869-12.346 13.396-16.136 2.3198-7.0177 12.099-0.2185 16.789-5.8281 3.6866-1.0907 9.825 3.1898 14.831 2.8706 7.8551 5.4353 17.493 8.8387 24.226 15.571 0.32015 0.25109 0.5826 0.52482 0.86986 0.78288-0.33965-2.6981-1.8113-5.376-4.8278-7.7418-6.2315-6.2304-14.951-9.6218-22.443-14.396-1.6973 1.709-7.4062 1.0357-7.2634-2.0877-2.8258-0.88102-5.6354-2.0812-7.8724-2.1312zm99.253 14.048c-1.7927 4.1783-7.8587 3.7441-12.57 3.7839-7.2125-3.2658-9.1226 1.2234-11.047 7.6548 1.86 0.86556 3.5507 2.0898 5.1323 3.4795 1.7082-4.377 4.0779-6.7994 9.8731-4.1754 5.7189-0.0483 13.458 0.61763 13.092-7.1329-1.4763-1.184-2.9538-2.4366-4.4799-3.6099zm-203.38 0.30444c-4.7493 1.6993-10.394 1.5279-15.266 0.43493-1.0098 1.6257-1.0929 3.5856 0.56542 6.0456 5.0916 1.7438 11.804 2.534 17.484 0.91335-0.07734-2.1378-1.2962-4.6154-2.7836-7.3939zm145.83 0.91336c-0.07124 1.839 1.9333 4.8671 4.2189 6.1326 0.45349-0.75317 1.604-0.9357 3.8274-0.08699 0.74172-0.60611 1.3759-1.6838 1.8702-3.3055-3.404-0.23262-6.7108-1.27-9.9166-2.7401zm-134.48 21.921c-4.4693 3.1087-10.46 4.3185-15.745 4.3928-1.1444 2.2091-1.1882 4.5271 1.5223 6.9154 5.7889 0.31832 13.048-0.74892 18.224-4.3493 0.27203 0.29074 0.52378 0.54154 0.78289 0.82637-0.0745-2.4933-2.1726-4.994-4.7843-7.7853zm49.626 1.3918c-2.2424 1.8898-4.8331 4.1073-7.5244 5.3062 2.0948 1.9617 8.051 0.74291 7.5244-5.3062zm131.48 1.0873c-1.8097 6.7799-9.0347 3.5582-14.135 2.4791-6.1208-4.9781-9.1137-1.16-12.657 4.5233 2.0023 1.6219 3.5326 3.6143 4.7843 5.7846 3.2257-4.9775 6.205-7.9595 11.874-3.349 5.2548 1.1117 12.79 4.5323 14.309-3.088-1.093-2.0981-2.5213-4.3068-4.1754-6.35zm-164.28 16.571c-3.8483 4.5142-10.083 7.4527-15.527 8.6552-0.9004 2.7691-0.6068 5.3742 3.0446 7.1764 5.6532-1.051 12.368-4.0952 16.441-8.8726 0.98254 0.60479 1.9011 1.1876 2.7401 1.7832 0.89627-3.6833-2.3796-6.084-6.698-8.7422zm144.27 0.26096c0.89944 2.0814 1.6618 4.2319 2.4791 6.3065-3.5775 6.8959-9.947 2.4398-14.918-0.39143-4.6112-6.4012-8.5446-3.3886-13.44 1.1308 3.6092 5.1486 4.7412 12.433 4.4364 18.18-5.1239 5.7472-9.9411-0.84212-13.918-4.4363-2.7658-7.435-7.3719-5.625-13.266-2.4356 2.4097 5.9786 0.91856 12.478 0 18.615-3.919 2.4824-6.7111 0.98016-8.9162-1.6962 0.04187 0.28373 0.10135 0.56059 0.13047 0.86986 2.8781 4.9454 6.2106 11.923 12.744 7.7853 0.91853-6.1368 2.4097-12.637 0-18.615 5.8937-3.1894 10.5-4.9993 13.266 2.4356 3.9769 3.5942 8.7941 10.183 13.918 4.4363 0.30485-5.7472-0.78368-13.032-4.3929-18.18 4.895-4.5194 8.8284-7.532 13.44-1.1308 4.9713 2.8312 11.341 7.2873 14.918 0.39144-1.7911-4.5461-3.433-9.4277-6.4806-13.265zm-123.04 13.744c-2.756 5.6431-8.3945 10.333-13.57 12.918-0.27092-0.05413-0.49575-0.14836-0.7394-0.21746-0.41295 3.3484 0.2966 6.2883 4.7408 7.1764 5.1756-2.584 10.771-7.2744 13.527-12.918 1.6895 0.51246 3.2526 1.0457 4.5668 1.6527 1.1752-5.2058-2.9345-6.916-8.5248-8.6117zm24.096 8.1332c-1.0366 6.2147-5.4975 12.025-9.7426 15.962-0.99102 0.06703-1.8071-0.02542-2.5226-0.21746 0.25466 3.9779 1.3391 7.527 6.5241 7.1764 4.2451-3.9366 8.6625-9.7474 9.6991-15.962 2.4688 0.08001 4.724 0.20137 6.4806 0.73939 0.6885-6.8523-4.0486-7.4912-10.439-7.6983zm30.924 0.60891c-1.6482 0.06347-3.5347 0.43176-5.5672 0.91336 0.68569 6.4013-2.3062 12.304-4.7843 18.006-2.323 0.72471-4.0254 0.45668-5.3497-0.39143 1.3553 4.7106 3.4111 9.2035 9.3512 7.3504 2.4781-5.7022 5.47-11.605 4.7843-18.006 3.4408-0.81531 6.4334-1.3591 8.6118-0.52192-0.1262-0.22012-0.26712-0.43877-0.39145-0.65241-0.511-5.4264-3.0286-6.8376-6.6545-6.698z" fill="#999" stroke="#999" stroke-width=".5"/>
  <g transform="matrix(1.1975 .70934 -.70935 1.1975 330.66 -404.15)" fill="url(#e)">
   <path d="m141.49348,339.76378-2.75,6.5-.75,4.6875 .125,1.75-7,.90625-.3125-1.71875-1.9375-4.3125-4.3125-5.5625-4.4375,1.15625-.9375,7 .5,4.71875 .5625,1.65625-6.5,2.6875-.75-1.59375-3-3.65625-5.625-4.25-3.9375,2.25 .875,7 1.6875,4.4375 1,1.4375-5.625,4.3125-1.125-1.34375-3.875-2.75-6.5-2.6875-3.25,3.21875 2.6875,6.53125 2.75,3.84375 1.375,1.125-4.3125,5.625-1.4375-1-4.4375-1.6875-7-.875-2.25,3.9375 4.25,5.59375 3.6875,3 1.5625.78125-2.6875,6.53125-1.6875-.59375-4.6875-.46875-7,.9375-1.1875,4.40625 5.5625,4.3125 4.3125,1.9375 1.75.3125-.9375,7.03125-1.75-.15625-4.6875.78125-6.5,2.71875v4.53125l6.5,2.71875 4.6875.78125 1.75-.15625 .9375,7.03125-1.75.3125-4.3125,1.96875-5.5625,4.28125 1.1875,4.40625 7,.9375 4.6875-.46875 1.6875-.59375 2.6875,6.5625-1.5625.75-3.6875,3-4.25,5.59375 2.25,3.9375 7-.875 4.4375-1.6875 1.4375-1 4.3125,5.625-1.375,1.125-2.75,3.84375-2.6875,6.53125 3.25,3.21875 6.5-2.65625 3.875-2.78125 1.125-1.34375 5.625,4.3125-1,1.4375-1.6875,4.4375-.875,7 3.9375,2.28125 5.625-4.28125 3-3.65625 .75-1.59375 6.5,2.71875-.5625,1.65625-.5,4.6875 .9375,7 4.4375,1.1875 4.3125-5.59375 1.9375-4.3125 .3125-1.71875 7,.90625-.125,1.75 .75,4.6875 2.75,6.5h4.5625l2.6875-6.5 .75-4.6875-.125-1.75 7-.90625 .3125,1.71875 2,4.3125 4.3125,5.59375 4.375-1.1875 .9375-7-.4375-4.6875-.625-1.65625 6.5625-2.71875 .75,1.59375 3,3.65625 5.5625,4.28125 4-2.28125-.9375-7-1.6875-4.4375-1-1.4375 5.625-4.3125 1.1875,1.34375 3.8125,2.78125 6.5,2.65625 3.25-3.21875-2.6875-6.53125-2.75-3.84375-1.375-1.125 4.3125-5.625 1.5,1 4.375,1.6875 7,.875 2.3125-3.9375-4.3125-5.59375-3.625-3-1.625-.75 2.75-6.5625 1.625.59375 4.75.46875 6.9375-.9375 1.1875-4.40625-5.5625-4.28125-4.3125-1.96875-1.75-.3125 .9375-7.03125 1.75.15625 4.6875-.78125 6.5-2.71875v-4.53125l-6.5-2.71875-4.6875-.78125-1.75.15625-.9375-7.03125 1.75-.3125 4.3125-1.9375 5.5625-4.3125-1.1875-4.40625-6.9375-.9375-4.75.46875-1.625.59375-2.75-6.53125 1.625-.78125 3.625-3 4.3125-5.59375-2.3125-3.9375-7,.875-4.375,1.6875-1.5,1-4.3125-5.625 1.375-1.125 2.75-3.84375 2.6875-6.53125-3.25-3.21875-6.5,2.6875-3.8125,2.75-1.1875,1.34375-5.625-4.3125 1-1.4375 1.6875-4.4375 .9375-7-4-2.25-5.5625,4.25-3,3.65625-.75,1.59375-6.5625-2.6875 .625-1.65625 .4375-4.71875-.9375-7-4.375-1.15625-4.3125,5.5625-2,4.3125-.3125,1.71875-7-.90625 .125-1.75-.75-4.6875-2.6875-6.5h-4.5625zm2.25,30.53125c.96651,0 1.95262.04213 2.90625.09375-.09949,4.40159-1.1276,7.8826-2.40625,7.875s-2.2859-3.51994-2.375-7.9375c.6301-.02257 1.23944-.03125 1.875-.03125zm-7.71875.5625 3.0625,3.53125v-.0625l2.375,6.375v9.21875 .25 9.21875l-2.375,6.375v2.84375l-.0625.03125c-.3299.11206-.64999.2405-.96875.375h-.03125c-.31212.13068-.63695.28642-.9375.4375l-.09375.03125c-.25899.13459-.50042.28814-.75.4375l-.125.0625c-.07643.04674-.14326.10815-.21875.15625-.19238.12073-.37635.21449-.5625.34375-.08478.05954-.16656.12622-.25.1875-.30297.2199-.59039.47685-.875.71875-.1587.13488-.31606.26482-.46875.40625-.1196.11203-.22798.22779-.34375.34375-.26952.26655-.53322.52575-.78125.8125-.24184.27959-.4673.57741-.6875.875-.67919.9179-1.26881,1.90268-1.71875,2.96875h-3.21875l-6.375,2.375h-9.21875-.25-9.21875l-6.28125-2.34375-3.375-2.96875c3.71353-22.19258 21.42723-39.6805 43.75-43zm16.375.15625c22.1913,3.68786 39.6626,21.32274 42.96875,43.78125l-3.53125,3.0625h.0625l-6.375,2.375h-9.21875-.25-9.21875l-6.375-2.375h-2.84375c-.0074-.02213-.02375-.04042-.03125-.0625-.11419-.34119-.23712-.67069-.375-1-.27185-.64069-.58069-1.25397-.9375-1.84375l-.09375-.15625-.03125-.0625c-.18907-.3054-.38347-.58528-.59375-.875-.2199-.30297-.47685-.59039-.71875-.875s-.49137-.55099-.75-.8125c-.26655-.26952-.52575-.53322-.8125-.78125-.27959-.24184-.57741-.4673-.875-.6875-.91791-.67919-1.90268-1.26881-2.96875-1.71875v-3.21875l-2.375-6.375v-9.21875-.25-9.21875l2.34375-6.28125 3-3.40625zm-8.15625,31.65625c1.03299-.00615 1.92692,2.25218 2.28125,5.4375-.89409-.17199-1.83752-.2484-2.78125-.25-.16624-.00029-.33505.02641-.5.03125-.33747.00991-.66869.02972-1,.0625h-.09375-.125c.3577-3.09531 1.20518-5.27523 2.21875-5.28125zm-.75,12.625h.21875c.49822.00084.99873.0596 1.46875.15625h.03125c.22451.04717.43989.08882.65625.15625 .20816.06503.42548.13578.625.21875 .01253.00522.01876.02596.03125.03125h.03125c.20698.08854.39723.20578.59375.3125h.03125c.19657.10768.37757.25017.5625.375h.03125c.18468.12561.35936.26456.53125.40625 .0065.00535.02477-.00537.03125,0 .48268.40046.91685.86359 1.28125,1.375 .0341.04785.06081.10754.09375.15625 .12978.19189.23262.38932.34375.59375s.22124.40923.3125.625c.0635.1528.13431.31078.1875.46875l.03125.09375c.06132.19048.11051.39661.15625.59375 .01453.06259.01837.12429.03125.1875 .03437.16823.07114.32764.09375.5 .004.03043-.00362.0632 0,.09375 .02448.20693.05562.41296.0625.625 .00265.08221.00014.16711 0,.25-.00141.23851-.00731.48617-.03125.71875-.001.01011.00104.02116 0,.03125-.02489.23214-.07871.46241-.125.6875-.002.00993.00204.02133 0,.03125-.04718.22451-.08882.43989-.15625.65625-.00268.00872.00271.02254 0,.03125-.06294.19863-.13944.40303-.21875.59375-.00518.01244-.026.01884-.03125.03125-.00359.00857.00362.02269 0,.03125-.08855.20697-.20578.39723-.3125.59375-.00442.00821.00445.02306 0,.03125-.10768.19657-.25017.37757-.375.5625-.00485.00725.00488.02402 0,.03125-.12561.18468-.26456.35936-.40625.53125-.00461.00562.00462.02564 0,.03125-.14271.172-.31098.31077-.46875.46875-.28498.28535-.57708.57796-.90625.8125l-.15625.09375c-.38377.25956-.78722.47372-1.21875.65625-.1528.0635-.31078.13431-.46875.1875l-.09375.03125-.09375.03125c-.1608.0494-.33455.08661-.5.125-.24437.05673-.49677.09392-.75.125-.1443.01769-.29063.02207-.4375.03125-.07181.00441-.14638.02894-.21875.03125h-.25c-.24902-.00147-.50748-.00525-.75-.03125-.23243-.02392-.46207-.07963-.6875-.125h-.03125c-.22485-.04624-.4395-.08971-.65625-.15625h-.03125l-.34375-.125-.25-.09375c-.01242-.00513-.01886-.02605-.03125-.03125h-.03125c-.20739-.08777-.39677-.20651-.59375-.3125h-.03125c-.197-.10699-.37709-.25082-.5625-.375h-.03125c-.18515-.12498-.35886-.26515-.53125-.40625h-.03125c-.17246-.14217-.31027-.31148-.46875-.46875-.23952-.23921-.48341-.47929-.6875-.75-.03905-.0518-.08733-.10338-.125-.15625-.03372-.04823-.06118-.10716-.09375-.15625-.35285-.5217-.6365-1.08073-.84375-1.6875l-.03125-.09375c-.03705-.11363-.06229-.22772-.09375-.34375-.03851-.14298-.06384-.2911-.09375-.4375-.03337-.16374-.07173-.33241-.09375-.5-.00134-.01022.0013-.02102 0-.03125s.00124-.02108 0-.03125c-.01753-.14283-.02224-.29219-.03125-.4375-.00462-.07389-.02883-.14426-.03125-.21875v-.21875c-3e-005-.01035-2e-005-.02089 0-.03125 .00147-.24902.00525-.50748.03125-.75 .02392-.23221.07964-.46248.125-.6875 .00209-.01016-.00213-.02111 0-.03125 .04624-.22444.08971-.44006.15625-.65625 .00293-.0094-.00297-.02186 0-.03125 .06347-.20311.13824-.39889.21875-.59375 .00513-.01247.02605-.01882.03125-.03125 .00366-.00864-.00369-.02263 0-.03125 .08776-.20668.20651-.39758.3125-.59375 .00418-.0077-.00421-.02357 0-.03125 .10699-.1962.25082-.37797.375-.5625 .00474-.00702-.00476-.02425 0-.03125 .12498-.18427.26515-.35978.40625-.53125 .00489-.00593-.00491-.02533 0-.03125 .14217-.17154.31148-.31122.46875-.46875 .28498-.28535.57708-.57796.90625-.8125l.15625-.09375c.5217-.35285 1.08073-.6365 1.6875-.84375l.09375-.03125c.11363-.03705.22772-.06229.34375-.09375 .14298-.03851.2911-.06384.4375-.09375 .23484-.04786.47617-.10067.71875-.125 .16588-.01673.33092-.02576.5-.03125zm-51.84375,4.28125c4.38664.10376 7.85133,1.13065 7.84375,2.40625s-3.50356,2.28165-7.90625,2.375c-.02133-.6126-.0625-1.22597-.0625-1.84375 0-.98561.07097-1.96528.125-2.9375zm37.6875.125c-.17196.89407-.2484,1.83752-.25,2.78125-.00083.49565.04708.98559.09375,1.46875 .00101.01041-.00103.02085 0,.03125 .00307.03085-.00326.06296 0,.09375 .00441.04164-.00479.08347 0,.125-3.09528-.35772-5.27523-1.20518-5.28125-2.21875-.00612-1.03301 2.25218-1.92692 5.4375-2.28125zm66.5625.9375c.00111.03137-.00106.06237 0,.09375l.03125,1.78125c0,.97507-.04093,1.94435-.09375,2.90625-4.40158-.09949-7.8826-1.1276-7.875-2.40625s3.51994-2.2859 7.9375-2.375zm-37.625.15625c3.09529.3577 5.27523,1.20518 5.28125,2.21875 .00613,1.03299-2.25218,1.92692-5.4375,2.28125 .17197-.89409.2484-1.83752.25-2.78125 .00028-.16624-.02641-.33505-.03125-.5-.00867-.29508-.03644-.58458-.0625-.875-.00656-.07308.00771-.14599 0-.21875-.00441-.04164.00479-.08347 0-.125zm-56.34375,3.96875h9.21875 .25 9.21875l6.375,2.375h2.84375c.11383.3455.26817.66657.40625,1 .00373.00902-.00375.02224 0,.03125s-.0038.0223 0,.03125c.13068.31212.28642.63695.4375.9375 .14778.28911.30267.56623.46875.84375 .02394.0407.03818.08456.0625.125 .04674.07643.10815.14326.15625.21875 .12073.19238.21449.37635.34375.5625l.1875.25c.34252.4719.72993.91722 1.125,1.34375 .10694.11417.23323.20182.34375.3125 .00526.00527-.00527.02599 0,.03125 1.32812,1.34288 2.89009,2.44208 4.65625,3.1875v3.21875l2.375,6.375v9.21875 .25 9.21875l-2.34375,6.28125-2.96875,3.40625c-22.20024-3.71326-39.66193-21.44944-42.96875-43.78125l3.5-3.0625h-.0625l6.375-2.375zm64.90625,1.0625h9.21875 .25 9.21875l6.28125,2.34375 3.40625,3c-3.71228,22.20816-21.43398,39.67617-43.78125,42.96875l-3.0625-3.53125v.0625l-2.375-6.375v-9.21875-.25-9.21875l2.375-6.375v-2.84375l.0625-.03125c.32296-.10809.62516-.24566.9375-.375h.03125c.35117-.14624.72599-.29678 1.0625-.46875 .27979-.1454.54371-.30614.8125-.46875l.15625-.09375c.23019-.14323.46613-.28205.6875-.4375 .39155-.27189.76289-.59848 1.125-.90625 .1587-.13639.31609-.26326.46875-.40625 .1119-.10364.20393-.23669.3125-.34375 .0055-.00548.02576.00549.03125,0 1.34288-1.32812 2.44208-2.89009 3.1875-4.65625h3.21875l6.375-2.375zm-25.90625,11.0625c.8941.17197 1.83752.2484 2.78125.25 .48503.00082.96444-.04914 1.4375-.09375h.0625 .09375 .125c-.35769,3.09529-1.20518,5.27523-2.21875,5.28125-1.03298.00613-1.92692-2.25218-2.28125-5.4375zm2.28125,29.84375c1.28165.0076 2.2859,3.51994 2.375,7.9375-.61253.0213-1.22604.03125-1.84375.03125-.9961,0-1.95508-.03864-2.9375-.09375 .0995-4.40158 1.1276-7.8826 2.40625-7.875z" fill="url(#d)" stroke="#999" stroke-width=".35925"/>
  </g>
  <path transform="matrix(1.3918 0 0 1.3918 -5.6836 -536.2)" d="m150.3125,449.96875c-.69056.0439-1.01397.20283-1.3125.5s-.63444.84187-.8125,1.90625c-.03321.19603-.09645.38576-.1875.5625-1.2205,2.45751-1.79839,5.30683-1.59375,8 .0452.60924-.2002,1.20399-.66186,1.6041s-1.08526.55848-1.68189.42715c-.00774-.00169-.54598.01581-1.21875.15625s-1.48139.36291-2.34375.53125-1.78752.33182-2.90625,0c-1.02185-.30308-1.92414-1.45067-2.1875-2.625l-.09375.03125c-.87185-3.1178-2.96255-5.85149-5.1875-8.75-.82174.15493-1.46144.37701-1.75.65625-.39901.38613-.64663.94242-.5,2.375 .01412.17768.0036.35645-.03125.53125-.51537,2.73483-.40446,5.67693.53125,8.15625 .223.58032.15333,1.23248-.18723,1.7526s-.91044.84474-1.53152.8724c-.01051.0005-.54248.12762-1.15625.4375s-1.33521.73936-2.125,1.125-1.6159.81158-2.78125.78125c-1.0744-.02796-2.2893-.92183-2.84375-2l-.0625.03125c-1.6156-2.80111-4.33022-4.88856-7.25-7.09375-.75201.36502-1.26532.77837-1.46875,1.125-.27951.47628-.40922,1.06727.09375,2.40625 .06953.1802.11166.36981.125.5625 .18974,2.73575 1.10534,5.48199 2.59375,7.78125 .33305.50595.40973,1.13874.20717,1.7096s-.66095,1.01378-1.23842,1.19665c-.00365.00116-.46445.2629-.96875.71875s-1.0954,1.04732-1.75,1.625-1.33457,1.19333-2.46875,1.46875c-1.04947.25485-2.43734-.2878-3.25-1.1875l-.0625.0625c-2.27505-2.27665-5.46362-3.57956-8.84375-4.96875-.63453.54658-1.07797,1.05081-1.1875,1.4375-.15103.53319-.11896,1.14473.71875,2.3125 .10711.15368.19133.3221.25.5 .92043,2.6225 2.49401,5.09306 4.53125,6.8125 .46304.3985.7105.99241.66741,1.6018s-.37165,1.16257-.88616,1.49195c-.00678.00434-.37519.39466-.75.96875s-.79284,1.30276-1.28125,2.03125-1.00627,1.50464-2.03125,2.0625c-.94536.51452-2.42123.34773-3.4375-.3125l-.03125.0625c-2.80507-1.59971-6.21763-2.06761-9.84375-2.53125-.46961.68669-.74793,1.29413-.75,1.6875-.00285.5404.20178,1.1211 1.3125,2.03125 .14382.11675.27011.25357.375.40625 1.55636,2.29835 3.7114,4.30065 6.125,5.4375 .56228.25664.96797.76666 1.09156,1.37226s-.04981,1.23379-.46656,1.69024c-.00583.00643-.28873.44183-.5,1.09375s-.40701,1.48183-.6875,2.3125-.56321,1.72469-1.40625,2.53125c-.77622.74263-2.25342.96101-3.40625.59375l-.03125.0625c-3.10684-.8134-6.512-.35846-10.125.125-.27632.79347-.41124,1.45958-.3125,1.84375 .13571.52799.46676,1.03457 1.78125,1.625 .17973.06836.34825.16316.5.28125 2.08604,1.81577 4.68548,3.14836 7.34375,3.65625 .59565.1179 1.10131.50878 1.36546,1.05552s.25611,1.18581-.02171,1.72573c-.00703.01356-.1481.53416-.1875,1.21875s-.03252,1.53064-.09375,2.40625-.11286,1.81992-.71875,2.8125c-.56293.9222-1.93901,1.52962-3.15625,1.46875v.0625c-3.22875.0102-6.39007,1.33262-9.75,2.75-.06537.82491-.00192,1.50421.1875,1.84375 .26198.4696.70938.85693 2.125,1.09375 .19603.03321.38576.09645.5625.1875 2.45751,1.22048 5.30688,1.7984 8,1.59375 .60924-.0452 1.204.2002 1.6041.66186s.55848,1.08526.42715,1.68189c-.00043.00196.01556.54688.15625,1.21875s.3624,1.48268.53125,2.34375 .33529,1.78517 0,2.90625c-.30915,1.03367-1.46766,1.94812-2.65625,2.1875l.03125.0625c-3.09719.82797-5.79039,2.95047-8.6875,5.1875 .16207.8162.37401,1.46259.65625,1.75 .39064.3978.94263.64242 2.375.5 .17768-.01412.35645-.0036.53125.03125 2.73333.50807 5.64646.40541 8.15625-.5 .57669-.21045 1.21905-.13452 1.73078.20458s.83201.90107.86297,1.51417c.00028.00585.12591.51555.4375,1.125s.73503,1.33998 1.125,2.125 .80552,1.61433.78125,2.78125c-.02238,1.07584-.89159,2.28926-1.96875,2.84375l.03125.0625c-2.79444,1.61169-4.88535,4.35317-7.09375,7.28125 .36122.75494.75661,1.30064 1.09375,1.5 .46323.27393 1.05838.38399 2.40625-.125 .1802-.06953.36981-.11166.5625-.125 2.76055-.19061 5.53264-1.06914 7.75-2.59375 .50769-.34603 1.14962-.43016 1.72933-.22664s1.02819.67044 1.20817,1.25789c.00133.00427.26411.46008.71875.96875s1.04827,1.08939 1.625,1.75 1.19396,1.36873 1.46875,2.5c.25452,1.04781-.28999,2.42909-1.1875,3.25l.0625.0625c-2.27716,2.26978-3.58821,5.44521-4.96875,8.8125 .55297.63906 1.05375,1.0773 1.4375,1.1875 .52912.15194 1.14166.12819 2.3125-.71875 .15175-.11809.32027-.21289.5-.28125 2.6054-.89395 5.05639-2.45898 6.8125-4.5 .3985-.46304.99241-.7105 1.6018-.66741s1.16257.37165 1.49195.88616c.00255.00397.36647.34946.9375.71875s1.30327.79814 2.03125,1.28125 1.50199.9775 2.0625,2c.51761.94424.36987,2.44786-.28125,3.46875l.0625.03125c-1.61562,2.79416-2.05839,6.21107-2.5,9.84375 .69982.47856 1.31772.74645 1.71875.75 .548.00485 1.12431-.19317 2.03125-1.3125 .11675-.14382.25357-.27011.40625-.375 2.27753-1.56743 4.23782-3.72258 5.4375-6.15625 .26524-.54621.77167-.93609 1.36756-1.05281s1.21198.05328 1.66369.45906c.00139.00127.44491.28625 1.09375.5s1.48357.43427 2.3125.71875 1.69796.58919 2.5,1.4375c.73233.77459.9204,2.19607.5625,3.34375l.09375.03125c-.78331,3.13836-.32691,6.56623.15625,10.1875 .78584.27207 1.42407.38451 1.8125.28125 .53384-.14192 1.06757-.47514 1.65625-1.78125 .07108-.16878.16577-.32661.28125-.46875 1.81578-2.12664 3.20286-4.68935 3.625-7.28125 .10129-.60698.48548-1.1295 1.03465-1.40717s1.19772-.27733 1.7466.00092c.01144.00587.53254.15085 1.21875.1875s1.52988.00481 2.40625.0625 1.81634.14568 2.8125.75c.92553.56148 1.53527,1.90739 1.46875,3.125h.0625c.01698,3.20826 1.33249,6.36358 2.71875,9.71875 .85024.06673 1.52792.03495 1.875-.15625 .47656-.26252.87133-.69056 1.09375-2.125 .02331-.19433.076-.38399.15625-.5625 1.19956-2.49576 1.802-5.33755 1.59375-8.03125-.0452-.60924.2002-1.20399.66186-1.6041s1.08526-.55848 1.68189-.42715c.01856.00399.54955-.01437 1.21875-.15625s1.48395-.35969 2.34375-.53125 1.75968-.35187 2.875-.03125c1.04851.30142 2.02458,1.45392 2.28125,2.65625l.0625-.03125c.81178,3.11054 2.91354,5.84006 5.15625,8.71875 .83778-.15246 1.46694-.38241 1.75-.65625 .38675-.37415.64725-.90513.5-2.34375-.01412-.17768-.0036-.35645.03125-.53125 .51775-2.74746.4314-5.68834-.5-8.15625-.223-.58032-.15333-1.23248.18723-1.7526s.91044-.84474 1.53152-.8724c.01817-.00091.51603-.12734 1.125-.4375s1.33974-.737 2.125-1.125 1.62021-.80372 2.78125-.78125c1.08225.02095 2.3116.88634 2.875,1.96875l.0625-.03125c1.60652,2.80704 4.3101,4.92301 7.21875,7.125 .77196-.36264 1.3275-.75463 1.53125-1.09375 .27829-.46319.3946-1.06005-.125-2.40625-.06658-.17028-.10866-.34915-.125-.53125-.23214-2.78966-1.06036-5.58703-2.59375-7.75-.36096-.50069-.46117-1.14364-.26969-1.73044s.65163-1.04689 1.23844-1.23831c.0171-.00545.48379-.26074 1-.71875s1.11512-1.08074 1.78125-1.65625 1.3682-1.16652 2.5-1.4375c1.03569-.24797 2.39999.30287 3.21875,1.1875l.0625-.0625c2.29243,2.2583 5.46732,3.56186 8.84375,4.9375 .64249-.54933 1.08155-1.05836 1.1875-1.4375 .14498-.51879.09607-1.14214-.75-2.3125-.10451-.144-.18863-.30174-.25-.46875-.95035-2.63159-2.50364-5.13681-4.53125-6.84375-.46304-.3985-.7105-.99241-.66741-1.6018s.37165-1.16257.88616-1.49195c.00678-.00434.37519-.39466.75-.96875s.79284-1.30276 1.28125-2.03125 1.00627-1.50464 2.03125-2.0625c.94536-.51452 2.42123-.34773 3.4375.3125l.03125-.0625c2.80509,1.5997 6.21762,2.06759 9.84375,2.53125 .47361-.69052.74539-1.29389.75-1.6875 .00633-.54073-.17326-1.12335-1.28125-2.03125-.14382-.11675-.27011-.25357-.375-.40625-1.55636-2.29834-3.71138-4.30058-6.125-5.4375-.56228-.25664-.96797-.76666-1.09156-1.37226s.04981-1.23379.46656-1.69024c.00582-.00642.28873-.44183.5-1.09375s.40701-1.48183.6875-2.3125 .56321-1.72468 1.40625-2.53125c.77622-.74263 2.25342-.96102 3.40625-.59375l.03125-.0625c3.09404.84013 6.5124.37345 10.125-.125 .27602-.79279.41138-1.45953.3125-1.84375-.1359-.52806-.46726-1.03283-1.78125-1.625-.16878-.07108-.32661-.16577-.46875-.28125-2.10744-1.79388-4.70382-3.15277-7.3125-3.625-.60132-.10968-1.11535-.49725-1.38624-1.04518s-.26672-1.19169.01124-1.73607c.00454-.00893.12302-.53387.15625-1.21875s.04021-1.53038.09375-2.40625 .08659-1.78257.6875-2.78125c.5583-.92787 1.93869-1.56056 3.15625-1.5v-.0625c3.21954-.02122 6.40073-1.32859 9.78125-2.71875 .0572-.84258-.01958-1.52018-.21875-1.875-.27364-.48749-.71049-.88948-2.125-1.125-.19603-.03321-.38576-.09645-.5625-.1875-2.39798-1.22958-5.27902-1.72566-8.0625-1.59375-.59859.02471-1.17482-.22948-1.56016-.68821s-.53625-1.0702-.40859-1.65554c.00043-.00198-.01556-.54689-.15625-1.21875s-.3624-1.48268-.53125-2.34375-.33529-1.78518 0-2.90625c.30915-1.03366 1.46767-1.94809 2.65625-2.1875l-.03125-.0625c3.09725-.82797 5.79043-2.95045 8.6875-5.1875-.16139-.82202-.37998-1.46548-.65625-1.75-.38238-.3938-.91235-.64851-2.34375-.5-.17768.01412-.35645.0036-.53125-.03125-2.7048-.50596-5.63161-.33061-8.21875.53125-.57794.19942-1.21614.11374-1.72102-.23105s-.81692-.90807-.84148-1.51895c-.0005-.01051-.12762-.54248-.4375-1.15625s-.73936-1.33522-1.125-2.125-.81158-1.6159-.78125-2.78125c.02796-1.0744.92183-2.28931 2-2.84375l-.03125-.03125c2.79061-1.62255 4.86859-4.35704 7.09375-7.25-.37214-.73905-.78146-1.29676-1.125-1.5-.47945-.28365-1.06007-.38793-2.40625.125-.17028.06658-.34915.10866-.53125.125-2.7706.22683-5.54631,1.05715-7.71875,2.5625-.50344.34688-1.14129.43521-1.72005.23818s-1.03022-.65618-1.21745-1.23818c.00073.00226-.25711-.46049-.71875-.96875s-1.07376-1.09335-1.65625-1.75-1.18886-1.36215-1.46875-2.5c-.25512-1.03718.26701-2.40922 1.15625-3.21875l-.03125-.03125c2.25935-2.29004 3.5429-5.51649 4.9375-8.90625-.53617-.61637-1.02875-1.0232-1.40625-1.125-.52324-.14111-1.14558-.1153-2.3125.71875-.144.10451-.30174.18863-.46875.25-2.64941.95025-5.16425,2.45819-6.875,4.46875-.3985.46304-.99241.7105-1.6018.66741s-1.16257-.37165-1.49195-.88616c-.00255-.00397-.36648-.34946-.9375-.71875s-1.30327-.79814-2.03125-1.28125-1.50199-.9775-2.0625-2c-.51761-.94424-.36987-2.44785.28125-3.46875l-.0625-.03125c1.58778-2.76773 2.06424-6.11854 2.53125-9.6875-.56824-.34183-1.12634-.69355-1.6875-1.03125-3.29723,2.36534-6.4181,4.646-7.875,7.875-.25032.56723-.75748.98-1.36373,1.10991s-1.23801-.03881-1.69877-.45366c.00105.00097-.44623-.28926-1.09375-.5s-1.45254-.40757-2.28125-.6875-1.72537-.56016-2.53125-1.40625c-.74214-.77917-.93411-2.25491-.5625-3.40625l-.09375-.03125c.82959-3.10723.37249-6.51347-.125-10.125-.8019-.28638-1.45441-.40942-1.84375-.3125-.53283.13264-1.06535.46147-1.65625,1.78125-.07799.18166-.18338.35029-.3125.5-1.80844,2.0484-3.05498,4.67449-3.625,7.375-.12334.57805-.50431,1.06793-1.03418,1.32982s-1.15044.26703-1.68457.01393c-.07229-.03402-.64932-.17883-1.375-.21875s-1.59682-.00935-2.5-.09375-1.91597-.201-2.90625-.96875c-.85306-.66136-1.15694-1.95551-1.0625-3.125h-.09375c-.146-3.17772-1.42866-6.27305-2.8125-9.53125-.26713-.02264-.60532-.07567-.8125-.0625zm-3.46875,26.90625c2.11817-.10958 4.22633-.10744 6.34375.03125 5.64462.36971 11.23764,1.63809 16.53125,3.875 .51367.21052.91207.63168 1.09375,1.15625 .48498,1.42465.6318,2.80608.6875,4.15625 .15089-.44498.30472-.91406.59375-1.40625 .32637-.55576.90678-1.33306 2.03125-1.53125 .76657-.13512 1.51381.10555 2.03125.4375 .31305.20083.53377.48689.78125.75 .91809.28602 1.77012.74344 2.3125,1.53125 .67235.97661.66428,2.18219.40625,3.09375-.15429.54507-.47735.97665-.75,1.4375 1.1412-.53484 2.33581-.98747 3.6875-1.25 .56524-.10856 1.14945.04036 1.59375.40625 17.78819,14.53253 24.24125,40.68438 15.21875,61.8125-.21052.51367-.63168.91207-1.15625,1.09375-1.54707.5267-3.04001.6579-4.5.6875 .76122.35464 1.56444.65898 2.28125,1.0625 .6667.36466 1.05797,1.08605 1,1.84375-.0954,1.27186-.37501,2.34503-.9375,3.25s-1.50304,1.55825-2.46875,1.78125c-1.55919.36004-2.85321-.18973-4-.90625 .63939,1.25796 1.17396,2.58447 1.4375,4.09375 .09892.55516-.04945,1.12583-.40625,1.5625-14.55146,17.75054-40.68424,24.21114-61.8125,15.21875-.51367-.21052-.91207-.63168-1.09375-1.15625-.51285-1.50649-.64446-2.94963-.6875-4.375-.43836.53366-.90173,1.0251-1.4375,1.40625-1.21283.86281-2.81723,1.50231-4.46875.6875-.82576-.40741-1.4565-1.23634-1.75-2.09375s-.362-1.77357-.25-2.8125c.05485-.41223.24115-.79579.53125-1.09375 .0541-.05871.18713-.26635.25-.34375-1.23245.62295-2.52612,1.17041-4,1.4375-.55516.09892-1.12583-.04945-1.5625-.40625-17.74532-14.55585-24.18885-40.6842-15.21875-61.8125 .21052-.51367.63168-.91207 1.15625-1.09375 1.11017-.37925 2.21788-.60966 3.28125-.71875 .13041-.01338.24569.01002.375,0-.53319-.2232-1.00198-.53687-1.4375-.96875s-.78312-1.09206-.84375-1.75 .12155-1.21239.3125-1.625c.76379-1.65043 1.82627-2.43536 2.21875-3.28125 .40723-.87089 1.39248-1.31026 2.3125-1.03125 .74556.22831 1.43345.57498 2.0625.96875-.47539-1.05523-.87939-2.14418-1.09375-3.375-.09892-.55516.04945-1.12583.40625-1.5625 9.57378-11.6447 24.11034-18.42044 38.9375-19.1875zm23.75,16.9375c-.02743.13148-.03541.27519-.0625.40625-.05578.22342-.15103.43508-.28125.625-3.40969,5.3362-6.24893,11.46326-10.34375,16.8125-.08383.10317-.17808.19742-.28125.28125-.18912.1583-.34401.28543-.53125.4375 .33187-.03712.60898-.2061.96875-.15625 .72033.09928 1.32404.59433 1.5625,1.28125 .10179.29247.04917.55321.125.84375 .59578-2.47509 1.45338-4.94089 3.1875-7.15625 .02752-.0407.06639-.08404.09375-.125 2.47381-3.70362 4.29703-8.4472 7.8125-12.28125-.39912.0244-.80662.01899-1.28125-.15625-.38185-.14098-.66538-.48664-.96875-.8125zm-57.78125,13.28125c.04113.44717.1487.86502-.03125,1.375-.13991.39649-.41814.77734-.75,1.09375l.5.09375c.23431.0522.45686.14757.65625.28125 5.33625,3.40966 11.46325,6.24893 16.8125,10.34375 .10166.07399.19585.15772.28125.25 .16712.19153.27983.34192.4375.53125-.02924-.15134-.1333-.25188-.15625-.40625-.10986-.70595.17855-1.41494.75-1.84375 .32696-.24374.72177-.26263 1.09375-.40625-1.83904-.35465-3.83303-.94616-5.59375-2.46875l-.03125.0625c-4.23004-2.74549-9.27403-4.96352-13.59375-8.46875-.07864-.06696-.15179-.14011-.21875-.21875-.05821-.06499-.09803-.15331-.15625-.21875zm36.21875,11.03125c-.90626.10137-1.88568.36946-2.9375.71875-1.85374.6156-3.85058,1.38057-6.09375,1.375 .23342.40658.31116.88413.21875,1.34375-.32333,1.61583-.89849,2.90013-1.875,3.8125-.60828.56833-1.40945.83914-2.21875.9375 .70022.51682.96883,1.43778.65625,2.25-.6411,1.62-.28977,3.41214.40625,5.53125 .60823,1.85181 1.36995,3.86285 1.375,6.09375 .40658-.23342.88413-.31116 1.34375-.21875 1.61407.32395 2.90118.89855 3.8125,1.875 .59755.64025.86125,1.49261.9375,2.34375 .54066-.80864 1.59792-1.08968 2.46875-.65625 1.46661.7315 2.85207.36316 4.78125-.375s4.09554-1.98088 6.78125-1.65625c.34761.04202.7478.25843 1.125.375-.42602-.71178-.7254-1.56139-.65625-2.4375 .03963-.41946.21521-.8145.5-1.125 .34074-.38363.61536-1.25455 1.34375-2.4375 .23292-.39456.59838-.69358 1.03125-.84375-.40676-.56498-.47838-1.30501-.1875-1.9375 .86971-1.80003.12884-3.5974-.875-6.0625-.50192-1.23255-1.06956-2.56308-1.21875-4.09375-.07268-.74567.02917-1.5456.25-2.34375-.89488.48924-1.98071.67905-2.96875.40625-1.18937-.32838-2.24837-1.0639-3.25-2.15625-.17059-.20119-.29821-.43515-.375-.6875-.53144.39302-1.22684.48731-1.84375.25-.80093-.31391-1.62499-.38262-2.53125-.28125zm1.3125,3.6875c1.12125.11943 2.21823.48959 3.25,1.0625v-.03125l.0625.03125 .0625.03125v.03125c7.09077,3.55152 5.61274,15.04117-2.0625,16.75v.03125l-.125.03125-.125.03125v-.03125c-7.49663,2.16939-14.17351-6.8576-9.96875-13.40625l-.03125-.03125c.02616-.04639.06683-.07926.09375-.125 1.82987-3.10939 5.38996-4.74288 8.84375-4.375zm17.34375,18.78125c-.07721.35191-.17742.71418-.34375,1-.40741.70008-.96145,1.15994-1.5625,1.5-.12484.07063-.2774.06373-.40625.125 .84087.13237 1.65526.23852 2.5625.46875 .19965.05276.38955.13716.5625.25 5.33569,3.40967 11.46376,6.24791 16.8125,10.34375 .07864.06696.15179.14011.21875.21875 .00596-.29929-.02384-.60034.09375-.9375 .18047-.51747.54676-.9549 1-1.28125-.21244-.0444-.44492-.05008-.65625-.09375-.22342-.05578-.43508-.15103-.625-.28125-5.33617-3.4097-11.46325-6.24889-16.8125-10.34375-.10317-.08383-.19742-.17808-.28125-.28125-.20431-.2441-.36831-.44684-.5625-.6875zm-30.9375,7.1875c-.3547,1.83856-.94146,3.82812-2.46875,5.59375l.0625.03125c-2.73389,4.21209-4.95787,9.22366-8.4375,13.53125 .23481-.00647.40792-.16036.65625-.125 .59368.0872 1.11323.44511 1.40625.96875 .01058-.05101.02072-.1053.03125-.15625 .05578-.22342.15103-.43508.28125-.625 3.41249-5.34061 6.2832-11.4672 10.375-16.8125 .08383-.10317.17808-.19742.28125-.28125 .20175-.16886.36324-.30696.5625-.46875-.18473.03762-.31062.15936-.5.1875-.70595.10986-1.41494-.17855-1.84375-.75-.25736-.34525-.27117-.72581-.40625-1.09375z" fill="none" stroke="url(#c)" stroke-width=".7185"/>
  <path transform="matrix(.67368 0 0 .67368 107.95 90.896)" d="m120.21 76.888-19.714-45.015-37.375 30.253 36.72-32.66-40.321-26.197 42.408 24.831 12.455-46.443-10.51 48.006 48.019-2.5068-48.904 4.8386 17.223 44.894z" fill="url(#a)"/>
  <path transform="matrix(.70145 0 0 .70145 134.44 165.72)" d="m120.21 76.888-19.714-45.015-37.375 30.253 36.72-32.66-40.321-26.197 42.408 24.831 12.455-46.443-10.51 48.006 48.019-2.5068-48.904 4.8386 17.223 44.894z" fill="url(#a)"/>
  <path transform="matrix(.71325 0 0 .71325 103.75 254.5)" d="m120.21 76.888-19.714-45.015-37.375 30.253 36.72-32.66-40.321-26.197 42.408 24.831 12.455-46.443-10.51 48.006 48.019-2.5068-48.904 4.8386 17.223 44.894z" fill="url(#a)"/>
  <path transform="translate(87.68 88.323)" d="m177.5 189.78-1.125-2.875-10.625 7.5 4 2 7.75-6.625z" fill="#888a85" opacity=".4"/>
  <path d="m311.125,173.5625c-.1544,1.36272-.64681,2.63586-1.59375,3.59375-1.17973,1.19337-2.72435,2.10762-4.21875,2.96875 .25875,1.20955.4737,2.43443.6875,3.65625 1.90904-1.13298 4.04958-2.23371 5.53125-3.5 .9015-.77045 1.52536-1.53507 1.75-2.34375s.14583-1.72252-.59375-2.96875l-.03125-.03125c-.3243-.59841-.87982-1.02423-1.53125-1.375zm3.40625,28.65625c-.27271,1.38811-.90747,2.70665-2.03125,3.71875-1.36536,1.22967-3.17454,2.10783-5.03125,2.65625-.06385.98035-.12629,1.94081-.21875,2.90625 .55331-.09357 1.12801-.15397 1.625-.3125 .07028-.02914.14368-.05011.21875-.0625 2.51714-.27641 5.36172-1.70883 6.78125-3.40625 .70977-.84871 1.04747-1.70902 1-2.53125-.04636-.80295-.4522-1.66093-1.59375-2.625l-.75-.34375zm-4.125,27.90625c.02602,1.27608-.14331,2.54453-.84375,3.59375-1.01045,1.5136-2.92303,2.41809-5.28125,2.21875-.79417.35002-1.62984.47085-2.46875.5625-.21871.61018-.45802,1.21553-.6875,1.8125 2.41213.35302 4.7787.58005 6.5-.25 .17431-.08554.36987-.11813.5625-.09375 1.50394.20418 2.49763-.14532 3.1875-.75s1.10381-1.5154 1.1875-2.5625c.13177-1.64875-.59942-3.44909-2.15625-4.53125zm-11.25,26.46875c.18171,1.96557-.55413,4.04301-2.6875,5.90625-.21226.19195-.49698.28306-.78125.25-2.29211-.2904-4.62305-.59643-6.9375-1l-.5625.78125c3.57408,1.13623 7.36732,1.66891 11.25,2.15625 1.04685-1.00289 1.60945-1.92233 1.78125-2.78125 .19023-.95106.01009-1.90362-.46875-2.9375-.35589-.7684-.98025-1.57643-1.59375-2.375zm-18.15625,20.53125c.43346,1.72783.46912,3.42458-.3125,5 .00066.02083.00066.04167 0,.0625-.72978,1.28691-1.6629,2.15131-2.71875,2.625s-2.19127.53655-3.28125.34375c-.14851-.02627-.28967-.12211-.4375-.15625 1.13068.65784 2.2474,1.38031 3.3125,1.78125 1.1601.4367 2.2165.60056 3.0625.40625s1.57937-.70719 2.3125-2c.73505-1.54482.38891-3.57886-.625-5.84375-.33515-.74866-.87936-1.46179-1.3125-2.21875zm-22.78125,13.21875c-.23786.14806-.47798.29092-.71875.4375 .48668,2.77972.76505,5.58403 1.09375,8.25 .03435.29947-.06911.59835-.28125.8125-1.89848,2.03525-3.92662,2.74475-5.84375,2.5625 .85784.66459 1.71972,1.29543 2.53125,1.65625 .97428.43318 1.85914.56624 2.78125.375 .82592-.17129 1.75309-.71446 2.75-1.6875-.50781-4.26335-.93521-8.57022-2.3125-12.40625zm-24.4375,10.90625c-.48982.14879-.97318.32687-1.46875.46875 .11346,1.67146-.00099,3.37687-.6875,4.9375 .40382,2.37721-.56241,4.37108-2.125,5.46875-1.00992.70944-2.2293.97649-3.46875,1.03125 .36525.70935.83556,1.27944 1.46875,1.625 .8902.48582 1.99857.64804 3.03125.46875s1.98668-.67852 2.5625-1.40625 .8553-1.67116.5625-3.03125c-.05238-.23299-.0191-.47704.09375-.6875 1.1535-2.23344.40388-5.67071.03125-8.875zm-55.40625,1.0625c-1.02278,2.01854-2.13039,4.27569-3.5625,6.1875-1.47383,1.96752-3.27161,3.59339-5.53125,4 .20334.42728.32619.96875.625,1.25 .55777.52499 1.3617.86836 2.65625.875h.03125c1.86935-.17255 3.64229-1.81228 5.21875-4.15625 1.55017-2.30488 2.84405-5.14458 4-7.34375-1.15535-.25233-2.29198-.52025-3.4375-.8125zm29.375,3.21875c-.85584.02634-1.70526.0253-2.5625.03125-.03413.34404-.06012.68313-.09375,1.03125-.00706.09629-.02811.19103-.0625.28125-.84199,2.16686-1.57943,4.61129-2.78125,6.625-.97422,1.63236-2.42949,2.95741-4.40625,3.34375l.71875,1.75c1.39781.44337 2.47314.50732 3.28125.28125 .88781-.24837 1.58983-.79144 2.21875-1.625 1.24306-1.64753 2.05297-4.41852 3.0625-7.03125 .15928-1.68385.34592-3.20887.625-4.6875z" fill="#eeeeec"/>
 </g>
</svg>
